<?xml version="1.0" encoding="utf-8"?>
<!-- Generator: Adobe Illustrator 19.2.0, SVG Export Plug-In . SVG Version: 6.00 Build 0)  -->
<svg version="1.1" id="Layer_1" xmlns="http://www.w3.org/2000/svg" xmlns:xlink="http://www.w3.org/1999/xlink" x="0px" y="0px"
	 viewBox="0 0 720 144" style="enable-background:new 0 0 720 144;" xml:space="preserve">
<style type="text/css">
	.st0{fill:#FFFFFF;}
	.st1{fill:#D1D1CF;}
</style>
<g id="Word_Mark_4_">
	<polygon id="L_4_" class="st0" points="631.3,104.2 631.3,39.7 642.5,39.7 642.5,94 670.2,94 670.2,104.2 	"/>
	<path id="Q_4_" class="st0" d="M582.1,105.8c-4.8,0-9.3-0.8-13.3-2.4c-4.1-1.6-7.6-3.8-10.6-6.7c-3-2.9-5.3-6.4-6.9-10.4
		c-1.6-4-2.5-9.4-2.5-14.4c0-4.8,0.9-10.1,2.5-14.1c1.7-4,4.1-7.5,7-10.4c3-2.9,6.5-5.2,10.6-6.8c4.1-1.6,8.6-2.5,13.4-2.5
		c4.7,0,9.2,0.8,13.2,2.5c4,1.6,7.6,3.9,10.6,6.8c3,2.9,5.3,6.4,7,10.4c1.7,4,2.5,9.3,2.5,14.1c0,5.7-1.2,11.7-3.7,16
		c-2.3,4.1-6.2,8.2-9.7,10.3c-0.5,0.3-1,0.6-1.5,0.8l12.9,4.4v8.8L582.1,105.8z M582.4,48.2c-3.3,0-6.3,0.6-8.9,1.8
		c-2.6,1.2-4.9,2.9-6.8,4.9c-1.9,2.1-3.4,4.5-4.4,7.2c-1,2.8-1.5,6.6-1.5,9.8c0,3.2,0.5,7.1,1.5,9.9c1,2.8,2.5,5.2,4.3,7.2
		c1.9,2,4.1,3.6,6.8,4.8c2.6,1.2,5.6,1.8,8.9,1.8c3.2,0,6.2-0.6,8.8-1.8c2.7-1.2,5-2.8,6.8-4.8c1.9-2,3.3-4.5,4.4-7.3
		c1.1-2.8,1.6-6.7,1.6-9.9c0-3.2-0.5-7-1.5-9.8c-1-2.7-2.4-5.2-4.3-7.2c-1.9-2.1-4.1-3.7-6.8-4.9C588.7,48.8,585.7,48.2,582.4,48.2z
		"/>
	<path id="S_4_" class="st0" d="M515.1,105.7c-4.1,0-8-0.8-11.8-2.4c-3.8-1.6-7-4-9.6-7.1l-0.8-0.9l8.7-7.4l0.8,1.1
		c1.3,2,3.2,3.6,5.4,4.9c2.3,1.2,4.7,1.9,7.4,1.9c1.3,0,2.7-0.2,4-0.6c1.3-0.4,2.5-0.9,3.6-1.7c1.1-0.8,1.9-1.7,2.6-2.9
		c0.6-1.1,1-2.5,1-4.1c0-1.6-0.3-3-1-4c-0.7-1.1-1.6-2-2.8-2.8c-1.2-0.8-2.7-1.5-4.4-2.1c-1.7-0.6-3.6-1.2-5.6-1.9
		c-2-0.6-4-1.3-6-2.2c-2-0.9-3.9-2-5.5-3.4c-1.6-1.4-3-3.2-4-5.3c-1-2.1-1.5-4.7-1.5-7.7c0-3.3,0.7-6.2,2-8.6
		c1.3-2.4,3.1-4.3,5.3-5.9c2.1-1.5,4.6-2.7,7.2-3.4c2.6-0.7,5.3-1,8-1c3.8,0,7.3,0.7,10.6,2c3.3,1.4,6,3.2,8.1,5.5l0.8,0.9l-8,7.8
		l-0.8-1.2c-1.1-1.5-2.6-2.8-4.5-3.8c-1.9-1-4.1-1.5-6.5-1.5c-1.3,0-2.6,0.2-3.9,0.5c-1.3,0.3-2.4,0.9-3.5,1.6
		c-1,0.7-1.9,1.7-2.5,2.8c-0.6,1.1-0.9,2.4-0.9,3.9c0,1.5,0.3,2.7,0.8,3.6c0.6,1,1.4,1.8,2.3,2.5c1,0.7,2.3,1.4,3.7,1.9
		c1.5,0.5,3.2,1.1,4.9,1.7c2.1,0.6,4.3,1.4,6.4,2.2c2.3,0.9,4.3,2,6.2,3.4c1.9,1.4,3.4,3.3,4.6,5.4c1.2,2.2,1.8,5,1.8,8.3
		c0,3.4-0.6,6.4-1.9,8.9c-1.3,2.5-3,4.6-5.1,6.3c-2.1,1.6-4.6,2.9-7.3,3.7C520.7,105.3,517.9,105.7,515.1,105.7z"/>
	<polygon id="M_2_1_" class="st0" points="473.9,104.2 473.9,49.8 449,104.2 444.9,104.2 420.2,50 420.2,104.2 414.9,104.2 
		414.9,39.6 421.3,39.6 447,96.1 472.8,39.6 479.1,39.6 479.1,104.2 	"/>
	<polygon id="E_4_" class="st0" points="359.2,104.2 359.2,39.6 398.8,39.6 398.8,44.2 364.5,44.2 364.5,68.2 396.8,68.2 
		396.8,73.3 364.5,73.3 364.5,99.5 400.2,99.5 400.2,104.2 	"/>
	<polygon id="M_1_1_" class="st0" points="337.3,104.2 337.3,49.8 312.4,104.2 308.3,104.2 283.5,50 283.5,104.2 278.3,104.2 
		278.3,39.6 284.7,39.6 310.4,96.1 336.1,39.6 342.5,39.6 342.5,104.2 	"/>
</g>
<g id="Logo_Mark_4_">
	<path id="Left_outer_wing_1_" class="st1" d="M115.2,23.9c-1.4,0.3-2.7,1.1-3.6,2.4l-58.5,88.3c-1,1.5-1.1,3-0.8,4.4
		c1,3.6,5.3,5.1,8.4,3l51.8-34.9c0.8-0.6,1.7-0.9,2.6-1.2V23.9z"/>
	<path id="Left_inner_wing_1_" class="st0" d="M151,68.2c-1.4-0.3-2.7-1-3.5-2.3l-26.6-39.6c-0.9-1.3-2.2-2.1-3.6-2.4v61.8
		c1.5,0,3.1,0.4,4.4,1.2l26,17.8c1,0.6,2.2,1,3.3,1.1V68.2z"/>
	<path id="Right_inner_wing_1_" class="st1" d="M186.8,23.9c-1.4,0.3-2.7,1-3.6,2.4l-26.6,39.6c-0.9,1.3-2.2,2.1-3.6,2.4v37.7
		c1.2-0.1,2.3-0.5,3.4-1.1l26-17.8c1.4-0.8,2.9-1.2,4.4-1.2V23.9z"/>
	<path id="Right_wing_1_" class="st0" d="M251,114.6l-58.5-88.3c-0.9-1.3-2.2-2.1-3.6-2.4V86c0.9,0.2,1.8,0.6,2.6,1.2l51.8,34.9
		c3.1,2.1,7.4,0.6,8.4-3C252.1,117.6,251.9,116,251,114.6z"/>
</g>
</svg>
